<?xml version="1.0" encoding="UTF-8"?>
<svg width="695px" height="156px" viewBox="0 0 695 156" version="1.1" xmlns="http://www.w3.org/2000/svg" xmlns:xlink="http://www.w3.org/1999/xlink">
    <!-- Generator: Sketch 59.1 (86144) - https://sketch.com -->
    <title>Blue-Logo_3</title>
    <desc>Created with Sketch.</desc>
    <g id="Design-Guide" stroke="none" stroke-width="1" fill="none" fill-rule="evenodd">
        <g id="01.-Colors" transform="translate(-403.000000, -1957.000000)" fill-rule="nonzero">
            <g id="Blue-Logo_3" transform="translate(403.000000, 1957.000000)">
                <circle id="Oval" fill="#6FCDE3" cx="57.6" cy="79.2" r="57.6"></circle>
                <path d="M189.682696,68.8435102 C192.698921,70.7583484 195.118779,73.4898511 196.665224,76.7252919 C198.39335,80.2577047 199.261109,84.1538684 199.196655,88.0912035 C199.246907,92.0338719 198.379966,95.9336387 196.665224,99.4783599 C195.109754,102.747246 192.694861,105.524576 189.682696,107.508854 C186.744366,109.443287 183.299116,110.449414 179.789022,110.398133 C176.718334,110.410716 173.701159,109.588693 171.055588,108.018727 C168.416391,106.446106 166.188708,104.260915 164.55825,101.645319 L164.55825,107.147695 C164.573232,107.831438 164.323589,108.494248 163.862107,108.995983 C163.393037,109.484095 162.74336,109.753505 162.06901,109.739547 C161.400472,109.75541 160.756571,109.485217 160.297009,108.995983 C159.835527,108.494248 159.585884,107.831438 159.600866,107.147695 L159.600866,50.5093387 C159.583285,49.837784 159.834079,49.1872214 160.297009,48.7035396 C160.766765,48.2343115 161.40773,47.98072 162.06901,48.0024647 C162.738033,47.9719301 163.38895,48.2262269 163.862506,48.7031374 C164.336062,49.180048 164.58857,49.8355769 164.55825,50.5093387 L164.55825,75.0894504 C166.058542,72.3737977 168.240902,70.1027175 170.886826,68.5035951 C173.54935,66.8501848 176.618853,65.9816913 179.746832,65.9967211 C183.261928,65.9620153 186.712161,66.9505637 189.682696,68.8435102 L189.682696,68.8435102 Z M187.066885,103.429873 C189.402154,101.837613 191.261985,99.6340749 192.446174,97.0564647 C193.775295,94.2594966 194.446613,91.1917197 194.408032,88.0912035 C194.458175,84.9895043 193.786279,81.9190895 192.446174,79.1259424 C191.250882,76.6011191 189.390144,74.4552973 187.066885,72.9224916 C184.766275,71.4126405 182.070606,70.6285395 179.324927,70.6705539 C173.625911,70.5866804 168.424661,73.9283692 166.098204,79.1684318 C164.7936,81.9873486 164.137415,85.0663964 164.178536,88.1761823 C164.133026,91.3046939 164.804366,94.4016505 166.140394,97.2264223 C167.313498,99.8111528 169.175651,102.017441 171.519683,103.599831 C173.832931,105.138127 176.553208,105.937779 179.324927,105.894258 C182.080706,105.880867 184.76685,105.021141 187.024694,103.429873 L187.066885,103.429873 Z" id="Shape" fill="#231F20"></path>
                <path d="M215.325065,108.502956 C214.870458,108.968562 214.250163,109.220196 213.610207,109.198619 C212.964073,109.22104 212.337152,108.96971 211.874935,108.502956 C211.424033,108.033525 211.180346,107.393002 211.201241,106.732178 L211.201241,50.4889025 C211.184227,49.8225322 211.426934,49.1769919 211.874935,48.6970441 C212.337152,48.2302899 212.964073,47.9789599 213.610207,48.0013813 C214.250163,47.9798045 214.870458,48.2314383 215.325065,48.6970441 C215.773066,49.1769919 216.015773,49.8225322 215.998759,50.4889025 L215.998759,106.732178 C216.019654,107.393002 215.775967,108.033525 215.325065,108.502956 L215.325065,108.502956 Z" id="Path" fill="#231F20"></path>
                <path d="M262.087487,86.9783525 C261.641021,87.4185591 261.042743,87.6633992 260.420877,87.6603972 L230.2593,87.6603972 C230.236467,90.6916859 230.933707,93.6837666 232.291751,96.3823026 C233.547886,98.9009474 235.478368,101.007351 237.860668,102.458701 C240.461577,103.995178 243.430632,104.767873 246.437612,104.690847 C248.825264,104.734682 251.186108,104.173561 253.307298,103.058074 C255.2141,102.073105 256.875286,100.659497 258.164856,98.9244693 C258.623803,98.4983722 259.211401,98.2433294 259.831466,98.2010885 C260.927925,98.2626016 261.803427,99.1529002 261.863917,100.267891 C261.83949,100.919466 261.5529,101.532223 261.071261,101.962669 C259.303819,104.117069 257.117133,105.876281 254.648715,107.129674 C252.143677,108.478781 249.35356,109.1881 246.51891,109.196476 C242.734139,109.264769 238.996008,108.339356 235.665621,106.509633 C232.539213,104.791903 229.958873,102.203798 228.226849,99.0484774 C226.427087,95.6255235 225.524159,91.78906 225.604987,87.9084135 C225.534273,83.8704917 226.434296,79.8760933 228.226849,76.272317 C229.792687,73.1294096 232.184716,70.4894777 235.137183,68.6458168 C237.892317,66.9167666 241.065974,66.0008156 244.303538,66.0001531 C247.430787,65.9874224 250.511695,66.7688912 253.266649,68.2737924 C256.093836,69.8220881 258.454249,72.1223818 260.095685,74.9288955 C261.903041,78.0599494 262.837546,81.632502 262.798845,85.2629066 C262.813385,85.9117628 262.554526,86.5360041 262.087487,86.9783525 L262.087487,86.9783525 Z M235.665621,73.9574985 C232.923703,76.3383473 231.125308,79.6507346 230.604817,83.2787765 L257.799015,83.2787765 L257.799015,82.6380678 C257.589586,80.3324582 256.75982,78.1300248 255.400722,76.272317 C254.116166,74.4837555 252.401612,73.0604641 250.421217,72.1387125 C248.516439,71.2137064 246.434648,70.7268019 244.323863,70.712619 C241.158412,70.75707 238.111449,71.9437145 235.726594,74.0608386 L235.665621,73.9574985 Z" id="Shape" fill="#231F20"></path>
                <path d="M303.595591,69.3615886 C306.127673,72.8050839 307.392334,77.0147544 307.176271,81.2805781 L307.176271,105.53898 C307.203123,106.207208 306.933402,106.853258 306.439072,107.304756 C305.976388,107.752484 305.356376,108.001507 304.711921,107.998454 C304.045282,108.020812 303.398465,107.770192 302.921581,107.304756 C302.456369,106.836651 302.204949,106.197938 302.226507,105.53898 L302.226507,81.4697684 C302.365603,78.3446788 301.412602,75.2684185 299.530466,72.7670142 C297.447449,70.4086745 294.371393,69.1697783 291.231713,69.424652 C286.524258,69.4525872 282.108916,71.7065853 279.331218,75.4997631 C278.042843,77.224295 277.34827,79.3186413 277.351313,81.4697684 L277.351313,105.53898 C277.372871,106.197938 277.121451,106.836651 276.656239,107.304756 C276.176698,107.76606 275.531705,108.015974 274.865899,107.998454 C274.205296,108.022236 273.564538,107.770759 273.097117,107.304262 C272.629696,106.837766 272.37772,106.198276 272.401549,105.53898 L272.401549,68.5838062 C272.37999,67.9248485 272.631411,67.2861351 273.096622,66.81803 C273.557646,66.3394358 274.201117,66.0794988 274.865899,66.103311 C275.530303,66.0857752 276.172738,66.3414771 276.642706,66.8105155 C277.112674,67.2795539 277.368883,67.9207176 277.351313,68.5838062 L277.351313,73.0613102 C278.932193,70.5981718 281.104125,68.567821 283.67016,67.1543683 C286.267045,65.6408229 289.214531,64.8293321 292.221666,64.8 C297.424184,64.8630634 301.194429,66.3765859 303.595591,69.3615886 Z" id="Path" fill="#231F20"></path>
                <path d="M356.903275,48.7014304 C357.36574,49.1844675 357.616282,49.8341629 357.598719,50.5048225 L357.598719,107.110117 C357.620289,107.775195 357.368734,108.419841 356.903275,108.892293 C356.423478,109.357881 355.778141,109.610116 355.11198,109.592434 C354.451024,109.616436 353.809924,109.362623 353.342254,108.891795 C352.874584,108.420966 352.622473,107.775537 352.646315,107.110117 L352.646315,101.275614 C351.162398,103.927469 349.038822,106.160242 346.471616,107.767825 C343.782319,109.524598 340.636405,110.440047 337.430845,110.398656 C333.926683,110.432056 330.489922,109.428739 327.547112,107.513229 C324.543131,105.54701 322.125099,102.797354 320.550525,99.5570871 C317.149825,92.3771602 317.149825,84.0354902 320.550525,76.8555632 C322.125099,73.6152962 324.543131,70.8656407 327.547112,68.8994217 C330.462783,66.992998 333.869997,65.98975 337.346549,66.0139944 C340.512728,65.9941384 343.624185,66.8451136 346.345172,68.4750942 C348.989625,69.9766803 351.175876,72.1776957 352.667389,74.8400074 L352.667389,50.5048225 C352.649826,49.8341629 352.900368,49.1844675 353.362833,48.7014304 C353.832116,48.2328277 354.472438,47.9795742 355.133054,48.0012899 C355.791967,47.9892993 356.428664,48.2411192 356.903275,48.7014304 Z M345.649728,103.52455 C348.000453,101.954504 349.863179,99.7482624 351.023613,97.1596364 C352.351031,94.336884 353.014468,91.2441355 352.962426,88.1214597 C353.010184,85.0401019 352.346479,81.9896794 351.023613,79.2105811 C349.845179,76.633471 347.986264,74.4317432 345.649728,72.8456679 C340.939437,69.7928668 334.89166,69.7928668 330.181369,72.8456679 C327.855529,74.443747 325.999409,76.6421645 324.807484,79.2105811 C322.222826,84.8958595 322.222826,91.4319253 324.807484,97.1172037 C325.999409,99.6856203 327.855529,101.884038 330.181369,103.482117 C332.472745,105.009696 335.167546,105.808072 337.915548,105.773486 C340.657104,105.805242 343.347181,105.023024 345.649728,103.52455 Z" id="Shape" fill="#231F20"></path>
                <path d="M403.585394,86.9781475 C403.139676,87.4202538 402.539964,87.6654204 401.917024,87.6601892 L371.743941,87.6601892 C371.721084,90.6914644 372.41906,93.6835319 373.778539,96.3820558 C375.044259,98.9014873 376.983457,101.007472 379.373682,102.458427 C381.977338,103.994897 384.949528,104.767589 387.959684,104.690564 C390.343732,104.737957 392.701338,104.176538 394.816278,103.057797 C396.725094,102.072833 398.388034,100.659231 399.678966,98.9242113 C400.143744,98.4938016 400.739851,98.2384535 401.367682,98.2008337 C401.907291,98.2140401 402.419619,98.4445187 402.791901,98.8415395 C403.195211,99.2212131 403.430068,99.7505468 403.442972,100.308963 C403.418234,100.964971 403.12284,101.58011 402.629133,102.003733 C400.839666,104.151712 398.629235,105.89736 396.138767,107.12938 C393.63079,108.477703 390.837918,109.18697 388.000376,109.196173 C384.217755,109.267463 380.481505,108.341762 377.155971,106.509342 C374.054116,104.77032 371.505842,102.167381 369.811073,99.006883 C368.023264,95.5943014 367.126623,91.7730844 367.206788,87.9082044 C367.112584,83.8726444 368.000132,79.8758239 369.790727,76.2721596 C371.350899,73.1307073 373.738563,70.4906201 376.688013,68.6456933 C379.454538,66.9189703 382.637387,66.0033698 385.884394,66.0000981 C389.014634,65.9899229 392.098174,66.7712306 394.85697,68.2736705 C397.677256,69.8283241 400.032068,72.1275725 401.672872,74.9287441 C403.488299,78.0581174 404.430787,81.6305123 404.399233,85.2627093 C404.39661,85.9299609 404.097546,86.5603377 403.585394,86.9781475 L403.585394,86.9781475 Z M377.135625,73.9573514 C374.377501,76.3271338 372.574215,79.6450103 372.069477,83.278588 L399.353431,83.278588 L399.353431,82.6378821 C399.141631,80.3362473 398.318898,78.1361483 396.972952,76.2721596 C395.682438,74.4880408 393.967318,73.0657875 391.988187,72.1385735 C390.080086,71.2173978 387.996944,70.7306935 385.884394,70.7124863 C382.693853,70.7385817 379.618414,71.9266215 377.217009,74.060691 L377.135625,73.9573514 Z" id="Shape" fill="#231F20"></path>
                <path d="M451.702532,48.7014333 C452.16549,49.1844723 452.4163,49.8341704 452.398717,50.5048327 L452.398717,107.110358 C452.42031,107.775438 452.168488,108.420086 451.702532,108.892541 C451.222224,109.358131 450.576199,109.610367 449.909329,109.592684 C449.247669,109.616687 448.605886,109.362873 448.137717,108.892043 C447.669549,108.421212 447.41717,107.77578 447.441037,107.110358 L447.441037,101.27583 C445.955538,103.927696 443.8297,106.160478 441.259759,107.768068 C438.573597,109.520823 435.432265,110.436103 432.230452,110.39891 C428.722556,110.43231 425.282134,109.428989 422.336188,107.513471 C419.347306,105.550355 416.93605,102.817689 415.353242,99.5997298 C411.948919,92.4197737 411.948919,84.0780697 415.353242,76.8981136 C416.935635,73.6619712 419.354931,70.9137953 422.357284,68.9419397 C425.294078,67.0235059 428.728693,66.0197376 432.230452,66.0565006 C435.400005,66.0366445 438.514776,66.8876232 441.238662,68.5176104 C443.885933,70.0192027 446.074513,72.220227 447.567616,74.8825495 L447.567616,50.5048327 C447.550034,49.8341704 447.800843,49.1844723 448.263801,48.7014333 C448.733584,48.2328287 449.374588,47.9795741 450.035908,48.00129 C450.659015,48.0166103 451.253736,48.2664509 451.702532,48.7014333 L451.702532,48.7014333 Z M440.436995,103.524776 C442.790225,101.954724 444.654936,99.748473 445.816606,97.1598365 C447.145438,94.3370726 447.809582,91.2443114 447.757485,88.1216229 C447.805294,85.0402527 447.140881,81.9898177 445.816606,79.2107081 C444.636916,76.6335876 442.776021,74.4318508 440.436995,72.845769 C435.7298,69.7913391 429.680447,69.7913391 424.973252,72.845769 C422.634226,74.4318508 420.77333,76.6335876 419.593641,79.2107081 C416.966305,84.8871902 416.966305,91.4409215 419.593641,97.1174036 C420.77333,99.6945241 422.634226,101.896261 424.973252,103.482343 C427.258307,105.01187 429.949907,105.810629 432.694575,105.773721 C435.439052,105.805477 438.131995,105.023256 440.436995,103.524776 L440.436995,103.524776 Z" id="Shape" fill="#231F20"></path>
                <path d="M476.401777,98.8161311 C476.563931,96.3560524 478.531744,94.4273285 480.94182,94.3662726 C482.208474,94.4115911 483.40142,94.9866636 484.241758,95.9570433 C485.70613,97.5653925 487.452969,98.8779827 489.391343,99.8264854 C491.431937,100.7306 493.642281,101.163642 495.865106,101.094803 C500.152924,100.922827 502.296833,99.267566 502.296833,96.1290185 C502.346611,94.5809436 501.531432,93.1385995 500.194961,92.4100547 C498.029938,91.2997622 495.744009,90.4555081 493.384898,89.8949173 C490.734064,89.1784286 488.135426,88.2733542 485.607974,87.1863078 C483.576282,86.2703901 481.788812,84.8698021 480.395333,83.1018967 C478.878312,80.9603514 478.135383,78.3465341 478.293462,75.7069629 C478.24584,73.1678581 479.04662,70.6881152 480.563483,68.6774763 C482.126524,66.6361076 484.17421,65.0376532 486.511779,64.0341458 C488.964017,62.9398557 491.613262,62.3833062 494.288703,62.4 C497.161954,62.4089543 500.010104,62.9478494 502.696188,63.991152 C505.280117,64.9039535 507.560219,66.5430418 509.275046,68.7204701 C509.971541,69.5694125 510.351339,70.6433302 510.347,71.7515331 C510.367433,73.0140872 509.787542,74.2082703 508.791615,74.9545713 C508.03795,75.5629797 507.103354,75.8891854 506.143257,75.8789381 C505.038338,75.9190194 503.966167,75.4912819 503.179619,74.6966085 C502.13993,73.4302996 500.831644,72.423086 499.354213,71.7515331 C497.680381,70.9958869 495.865829,70.621786 494.036478,70.6551912 C489.832736,70.6551912 487.730864,72.202968 487.730864,75.2985217 C487.682745,76.4174383 488.103227,77.5042859 488.886893,78.2865909 C489.721294,79.0929271 490.718651,79.7020199 491.808495,80.0708337 C492.985543,80.4721092 494.646021,80.9880348 496.78993,81.6186105 C499.322687,82.3054862 501.802586,83.1820607 504.209536,84.2412324 C506.155388,85.1943664 507.833128,86.6366178 509.085877,88.4331281 C510.566125,90.5685391 511.305951,93.1487422 511.187749,95.7635712 C511.231083,98.3823874 510.38416,100.935371 508.791615,102.98653 C507.199372,105.01408 505.131416,106.596635 502.780263,107.586867 C500.33992,108.645333 497.717113,109.193523 495.066395,109.199134 C491.600019,109.226612 488.158423,108.599881 484.914357,107.350401 C481.801808,106.165932 479.097705,104.073028 477.137432,101.331268 C476.633871,100.595747 476.375864,99.7136459 476.401777,98.8161311 L476.401777,98.8161311 Z" id="Path" fill="#231F20"></path>
                <path d="M557.604689,88.0859454 C556.647988,88.9264588 555.423172,89.3777624 554.162934,89.3541174 L527.006642,89.3541174 C527.540245,92.4154486 529.153474,95.1692631 531.539686,97.0921159 C533.802807,98.9418738 536.619198,99.9362956 539.514486,99.9078876 C541.291136,99.9773395 543.067671,99.7671127 544.782051,99.2845488 C545.836529,98.9527108 546.850468,98.498372 547.80408,97.9303991 L549.315095,96.9631493 C550.184567,96.4969773 551.146266,96.2397054 552.127261,96.2108439 C554.445345,96.2108439 556.324524,98.1355216 556.324524,100.509732 C556.243289,102.184213 555.385328,103.718004 554.016029,104.636664 C552.159822,106.06846 550.07099,107.152717 547.846053,107.839336 C545.327624,108.730182 542.682548,109.187755 540.018157,109.193486 C535.815396,109.291722 531.659004,108.277439 527.951026,106.248747 C524.604017,104.361401 521.85208,101.535377 520.018199,98.1023546 C518.114667,94.5249897 517.145967,90.5045419 517.206033,86.4308735 C517.111456,81.9928232 518.1303,77.6041506 520.165103,73.6846704 C521.982888,70.2142883 524.68898,67.316355 527.992999,65.3018387 C531.130107,63.3949466 534.712261,62.3923157 538.360238,62.4000443 C541.99152,62.3995672 545.549011,63.4501833 548.622546,65.4308053 C551.820617,67.445516 554.46991,70.2550708 556.324524,73.5986926 C558.22328,76.9860771 559.215084,80.8269076 559.199827,84.7328127 C559.193761,86.0408438 558.606733,87.2749714 557.604689,88.0859454 L557.604689,88.0859454 Z M527.069601,80.9282968 L548.643533,80.9282968 L548.643533,80.3264524 C548.404671,77.9075682 547.177091,75.7053367 545.264736,74.2650203 C543.32308,72.6049376 540.868412,71.7059561 538.339252,71.7286763 C532.001385,71.7286763 528.25183,74.7952165 527.090587,80.9282968 L527.069601,80.9282968 Z" id="Shape" fill="#231F20"></path>
                <path d="M601.671623,68.4948741 C603.950654,72.6613657 605.022541,77.4071598 604.761554,82.1755916 L604.761554,102.998601 C604.79635,104.321393 604.313252,105.603502 603.419873,106.559336 C601.513383,108.480221 598.455332,108.480221 596.548842,106.559336 C595.655463,105.603502 595.172366,104.321393 595.207161,102.998601 L595.207161,82.1755916 C595.349341,79.6798666 594.700481,77.2038829 593.357268,75.1165912 C591.809574,73.2441839 589.457722,72.2774399 587.075764,72.534538 C584.38333,72.3813265 581.749035,73.3762587 579.798163,75.2831753 C578.042325,77.1177448 577.094928,79.6077969 577.175787,82.1755916 L577.175787,102.998601 C577.212108,104.325621 576.720514,105.610807 575.813778,106.559336 C573.914214,108.477753 570.862639,108.477753 568.963075,106.559336 C568.064218,105.605607 567.573975,104.323954 567.601066,102.998601 L567.601066,69.3486175 C567.573975,68.0232649 568.064218,66.7416116 568.963075,65.7878828 C570.875729,63.9024478 573.901124,63.9024478 575.813778,65.7878828 C576.720514,66.7364116 577.212108,68.0215984 577.175787,69.3486175 L577.175787,70.7437591 C578.713546,68.6979161 580.626291,66.9791295 582.80678,65.6837677 C585.104665,64.2836954 587.736237,63.56295 590.409637,63.6014668 C595.844121,63.5737027 599.598116,65.2048385 601.671623,68.4948741 Z" id="Path" fill="#231F20"></path>
                <path d="M612.003178,98.8162069 C612.012178,97.289446 612.811244,95.8820981 614.102537,95.1187316 C614.801113,94.6287264 615.628053,94.3664534 616.474812,94.3663383 C617.739952,94.4116569 618.931472,94.9867307 619.770805,95.9571126 C621.237682,97.5605623 622.981475,98.8724346 624.914233,99.8265636 C626.952388,100.73068 629.160089,101.163724 631.380258,101.094884 C635.662949,100.922908 637.804295,99.2676429 637.804295,96.1290882 C637.859079,94.5797142 637.043434,93.1348147 635.704936,92.4101159 C633.548548,91.3028737 631.272659,90.4587139 628.924008,89.8949727 C626.269535,89.1783663 623.66703,88.2733042 621.135388,87.186357 C619.112044,86.2704053 617.333548,84.869529 615.949972,83.1019366 C614.434764,80.9603864 613.692724,78.3465631 613.850614,75.7069858 C613.803049,73.1678753 614.602871,70.6881267 616.117921,68.6774832 C617.675866,66.6417243 619.712833,65.0440842 622.038112,64.034142 C624.494835,62.9399521 627.14773,62.3834716 629.826732,62.4 C632.696764,62.4065829 635.541919,62.945557 638.224167,63.9911481 C640.808503,64.9086792 643.091472,66.5465637 644.816153,68.7204771 C645.511816,69.5694214 645.891159,70.6433416 645.886825,71.751547 C645.898842,73.0171626 645.312211,74.2105465 644.312307,74.9545925 C643.570225,75.5677859 642.641547,75.8949109 641.688108,75.8789614 C640.58322,75.9269037 639.509372,75.4979835 638.728013,74.6966291 C637.686688,73.4243183 636.371714,72.4162807 634.886186,71.751547 C633.214356,70.995899 631.401974,70.6217973 629.574809,70.6552026 C625.376092,70.6552026 623.276734,72.202983 623.276734,75.2985437 C623.228672,76.4174629 623.648651,77.5043129 624.431381,78.2866198 C625.271494,79.08383 626.265613,79.6916735 627.349489,80.0708666 C628.52513,80.4793087 630.204617,80.9952355 632.345963,81.618647 C634.874668,82.3089564 637.351361,83.1854476 639.756698,84.2412749 C641.723181,85.1852512 643.421418,86.6282144 644.690191,88.4331801 C646.159948,90.5729101 646.897996,93.1499968 646.78955,95.7636401 C646.812296,98.3630294 645.959693,100.891065 644.375287,102.922124 C642.757551,104.99087 640.646211,106.597535 638.24516,107.586962 C635.808928,108.649358 633.18847,109.197714 630.540514,109.199234 C627.085248,109.22505 623.654944,108.598329 620.421606,107.350496 C617.343498,106.151475 614.673402,104.059801 612.737953,101.33135 C612.226517,100.600056 611.967943,99.7149556 612.003178,98.8162069 L612.003178,98.8162069 Z" id="Path" fill="#231F20"></path>
                <path d="M693.165045,87.9397044 C692.203352,88.7411931 690.972697,89.1699842 689.707496,89.1444012 L662.591934,89.1444012 C663.124875,92.0474982 664.726868,94.6612602 667.097224,96.4950938 C669.362544,98.2567152 672.182903,99.201629 675.081018,99.1699292 C676.85494,99.2342985 678.628561,99.0346222 680.340683,98.57779 C681.387072,98.262967 682.392596,97.8313105 683.337225,97.2914188 L684.866928,96.3725823 C685.7266,95.9272902 686.680665,95.6826455 687.653922,95.6579316 C688.768943,95.6362284 689.841678,96.0736165 690.608554,96.8626284 C691.405286,97.5846944 691.853921,98.599782 691.84489,99.6599753 C691.774025,101.253553 690.91486,102.714809 689.539857,103.580345 C687.692622,104.969389 685.60656,106.027211 683.379135,106.704389 C680.871709,107.550619 678.237491,107.98532 675.583934,107.99076 C671.392823,108.104755 667.242512,107.162303 663.534902,105.254669 C660.18729,103.462147 657.432616,100.777967 655.593017,97.5160233 C653.699628,94.1157974 652.739626,90.2966919 652.806024,86.4287287 C652.711589,82.2128138 653.728905,78.043805 655.760656,74.3205045 C657.567873,71.018286 660.271722,68.2635525 663.576811,66.3572542 C666.733649,64.5315371 670.341391,63.5785626 674.012321,63.6003659 C677.631516,63.6003659 681.1768,64.5989051 684.238283,66.4797657 C687.436752,68.3873308 690.083524,71.0577248 691.928709,74.2388301 C693.833965,77.4529179 694.824962,81.1040114 694.799522,84.81566 C694.764608,86.0435395 694.164326,87.1908817 693.165045,87.9397044 L693.165045,87.9397044 Z M662.675753,81.1403137 L684.196373,81.1403137 L684.196373,80.5685932 C683.962981,78.2741493 682.745191,76.1827198 680.843599,74.8105507 C678.92692,73.2516945 676.508919,72.398865 674.012321,72.4011524 C667.579186,72.4011524 663.807314,75.3210154 662.675753,81.1403137 L662.675753,81.1403137 Z" id="Shape" fill="#231F20"></path>
                <path d="M54.9174272,31.9213267 L54.5983314,62.045272 C44.5721989,63.89261 37.6003407,72.9228534 38.4737801,82.9304678 C39.3472196,92.9380822 47.7815507,100.664427 57.9807466,100.8 L58.2572963,100.8 C69.0656714,100.732818 77.8368904,92.1698762 77.9986882,81.5273785 L77.9986882,81.5273785 C78.112283,71.7211028 70.8361645,63.3468792 60.9802469,61.9405295 L61.405708,32.0051207 C61.405708,30.2349814 59.9484947,28.8 58.1509311,28.8 C56.3533674,28.8 54.8961542,30.2349814 54.8961542,32.0051207 L54.9174272,31.9213267 Z M60.7887895,78.5736398 L60.9802469,67.512831 C67.7006145,68.842193 72.5082407,74.6940437 72.4251487,81.4435845 C72.4063369,85.1548147 70.8731742,88.7027793 68.1705383,91.2893803 C63.9102336,95.3972053 57.5012272,96.4543466 52.1141422,93.9378218 C46.7270572,91.421297 43.5040825,85.8646687 44.0396679,80.0168769 C44.5752532,74.1690851 48.7558417,69.2699994 54.5132392,67.7432645 L54.3643279,78.4688973 C54.3453275,79.6139767 54.9481275,80.6820556 55.9456588,81.270799 C56.9431901,81.8595424 58.1839041,81.8795062 59.2004357,81.3231702 C60.2169674,80.7668343 60.8548814,79.7187192 60.8738817,78.5736398 L60.7887895,78.5736398 Z" id="Shape" fill="#231F20"></path>
                <path d="M72.2154961,45.956357 C82.7877502,50.3692668 90.8302637,59.2024625 94.1651105,70.0639 C94.5328565,71.2175006 95.6150289,72.0014309 96.8377864,72 C97.7113541,71.9886496 98.5294624,71.5744409 99.0496762,70.8801171 C99.56989,70.1857933 99.7325366,69.290999 99.4894177,68.4608941 C95.6667627,56.0494574 86.4687432,45.9588914 74.3830994,40.9183385 C73.013917,40.508392 71.5538899,41.1940876 71.0094929,42.5027385 C70.4650958,43.8113895 71.0143522,45.3150538 72.2786301,45.9771753 L72.2154961,45.956357 Z" id="Path" fill="#231F20"></path>
                <path d="M90.7310752,114.451927 C89.2263682,113.544131 87.2863985,114.046595 86.387071,115.57705 L66.4337503,151.135201 C66.0063775,151.87986 65.8889281,152.76836 66.1076533,153.602113 C66.3263785,154.435867 66.8630421,155.145358 67.597694,155.572009 C69.1202575,156.456462 71.056077,155.926692 71.9416982,154.383199 L91.9989424,118.888735 C92.4122901,118.129814 92.5108557,117.233431 92.2726274,116.399769 C92.0343992,115.566106 91.4792206,114.864606 90.7310752,114.451927 L90.7310752,114.451927 Z" id="Path" fill="#231F20"></path>
                <path d="M94.076506,102.073489 C92.1359215,102.471736 90.881911,104.363408 91.2706722,106.306083 C91.6594334,108.248758 93.5448087,109.512073 95.4891773,109.132736 C97.433546,108.753399 98.7059085,106.874025 98.3360735,104.927657 C98.156159,103.980803 97.6040882,103.145651 96.8034655,102.609186 C96.0028428,102.07272 95.0205469,101.879753 94.076506,102.073489 Z" id="Path" fill="#231F20"></path>
                <path d="M101.79889,92.4157657 C101.366227,91.1734373 100.290302,90.2660843 98.9927685,90.0492973 C97.6952349,89.8325104 96.3827836,90.3408226 95.569763,91.375027 C94.7567425,92.4092313 94.5726627,93.8045842 95.0896645,95.0142481 C95.8520166,96.7979746 97.8907174,97.6567859 99.6996038,96.9562044 C101.50849,96.2556229 102.436879,94.247658 101.79889,92.4157657 L101.79889,92.4157657 Z" id="Path" fill="#231F20"></path>
                <path d="M67.4126559,122.802323 C68.8629643,122.487984 69.8083454,121.101851 69.5606153,119.65295 C69.3128853,118.204049 67.959347,117.202988 66.4852995,117.378484 C65.326104,117.566232 57.4224983,117.628815 55.9471586,117.566232 C40.54905,116.910632 26.9971825,107.310932 21.4031328,93.0963736 C20.4250565,90.6051024 19.7185095,88.0175909 19.2955046,85.3778334 C19.2955046,85.0231977 19.2955046,84.6685621 19.2955046,84.3139265 C19.306074,84.1541638 19.306074,83.993888 19.2955046,83.8341253 C19.2955046,83.5629334 19.2955046,83.3334632 19.2955046,83.0622713 C19.1366079,70.7764361 24.4571166,59.0459128 33.838139,50.999038 C36.9036935,48.7630227 40.1951252,46.8474928 43.6596863,45.283146 C45.0914197,44.7070876 45.7802603,43.0913106 45.1982549,41.6742069 C44.6162494,40.2571033 42.9837915,39.5753014 41.5520581,40.1513598 C37.576054,41.8825398 33.8022497,44.0369494 30.2973237,46.576523 C33.567113,42.5581542 37.0422043,38.7077718 40.7090069,35.0404345 C49.919342,25.5695771 58.6027701,16.5993817 59.3615162,2.91461844 C59.448817,1.39382435 58.2740135,0.0909290486 56.7375192,0.00452029337 C55.2010248,-0.0818884618 53.8846787,1.08091056 53.7973778,2.60170465 C53.1440131,14.2629587 45.5354754,22.1275253 36.7045133,31.2437472 C26.060991,42.3208954 14.1528918,54.7331426 13.4362982,76.4493598 C13.3210458,76.7206693 13.2567647,77.0105131 13.2466117,77.3046575 C13.1083534,80.2346431 13.2778728,83.170919 13.7524425,86.0662437 C13.7524425,86.504323 13.7524425,86.9632632 13.8789002,87.4013425 C13.922907,87.7086557 14.0228821,88.0055163 14.1739681,88.2775012 C14.6948899,90.6024765 15.399602,92.883338 16.2815963,95.0990219 C22.4764127,110.809333 37.2103141,121.623222 54.1978272,122.927489 C54.0633124,123.288376 53.9920342,123.669346 53.9870644,124.053978 L53.9870644,133.608279 C53.9870644,135.371018 55.4307988,136.8 57.2117355,136.8 C58.9926722,136.8 60.4364066,135.371018 60.4364066,133.608279 L60.4364066,124.053978 C60.4231635,123.721327 60.3664896,123.39177 60.2677964,123.073515 C62.6524814,123.100093 65.0370307,123.009584 67.4126559,122.802323 L67.4126559,122.802323 Z" id="Path" fill="#231F20"></path>
            </g>
        </g>
    </g>
</svg>