<svg width="490" height="1160" viewBox="0 0 790 1948" fill="none" xmlns="http://www.w3.org/2000/svg">
<g clip-path="url(#clip0)">
<path d="M448.13 1516.57C448.13 1518.57 448.25 1520.14 448.24 1521.72C447.733 1585.05 447.217 1648.39 446.69 1711.72C446.383 1748.34 446.05 1784.96 445.69 1821.58C445.37 1856.25 445.06 1890.95 444.76 1925.68C444.76 1928.87 444.64 1932.07 444.61 1935.27C444.54 1941.55 447.66 1945.54 453.78 1946.9C455.324 1947.32 456.922 1947.5 458.52 1947.43C467.84 1946.6 470.72 1942.33 471.74 1934.98C471.99 1932.27 472.061 1929.55 471.95 1926.84C472.063 1870.07 472.163 1813.3 472.25 1756.53C472.397 1678.49 472.557 1600.45 472.73 1522.41C472.554 1520.44 472.703 1518.45 473.17 1516.52C474.063 1516.26 474.976 1516.09 475.9 1515.99C478.78 1515.9 481.66 1515.99 484.53 1515.88C485.484 1515.82 486.438 1516.01 487.295 1516.44C488.151 1516.86 488.881 1517.5 489.41 1518.3C492.65 1522.47 495.99 1526.55 499.29 1530.67C558.49 1604.73 617.687 1678.79 676.88 1752.86C704.827 1787.83 732.773 1822.8 760.72 1857.79C762.687 1860.5 765.047 1862.9 767.72 1864.91C769.273 1866.05 771.097 1866.77 773.012 1866.99C774.927 1867.22 776.866 1866.94 778.64 1866.18C782.758 1864.7 786.132 1861.67 788.04 1857.73C788.987 1855.95 789.378 1853.92 789.162 1851.92C788.947 1849.91 788.134 1848.02 786.83 1846.48C785.75 1845.09 784.58 1843.77 783.47 1842.41L609.47 1627.83C579.25 1590.58 549.013 1553.34 518.76 1516.11C516.76 1513.71 516.24 1511.05 515.9 1508.18C515.26 1502.78 514.65 1497.38 513.83 1492.01C513.473 1489.97 512.869 1487.98 512.03 1486.09C508.95 1478.67 503.03 1475.68 495.3 1475.64C489.22 1475.64 483.15 1475.77 477.07 1475.82C475.96 1475.82 474.85 1475.71 473.91 1475.66C472.56 1474.59 472.81 1473.25 472.8 1472C472.687 1458.42 472.587 1444.84 472.5 1431.25C472.33 1410.46 472.07 1389.68 471.97 1368.89C471.75 1325.24 471.577 1281.58 471.45 1237.89C471.45 1236.89 471.45 1235.97 471.45 1235.01C471.389 1234.45 471.462 1233.89 471.664 1233.37C471.866 1232.85 472.19 1232.38 472.61 1232.01C474.33 1230.68 474.5 1228.85 474.45 1226.84C474.11 1211.01 473.82 1195.19 473.45 1179.36C473.45 1178.12 473.45 1176.54 472.71 1175.72C470.92 1173.66 471.01 1171.35 471 1168.95C470.853 1130.73 470.7 1092.51 470.54 1054.3C470.06 956.907 469.563 859.52 469.05 762.14C468.823 715.92 468.64 669.703 468.5 623.49C468.4 600.297 468.263 577.11 468.09 553.93C468.09 552.02 468.09 550.11 468.09 548.17C468.8 547.56 469.38 547.03 470 546.55C470.746 545.947 471.348 545.185 471.763 544.32C472.178 543.455 472.396 542.509 472.4 541.55C472.46 540.27 472.45 538.99 472.45 537.71L472.69 472.94C472.69 471.94 472.69 471.02 472.69 470.07C472.607 469.347 472.683 468.614 472.913 467.923C473.143 467.232 473.52 466.6 474.02 466.07C476.02 464.12 476.3 461.62 476.24 458.98C476 449.71 475.82 440.44 475.63 431.16C475.63 429.42 475.63 427.68 475.63 425.8C476.579 425.422 477.564 425.14 478.57 424.96C483.83 424.61 489.09 424.27 494.36 424.08C498.187 423.927 501.992 423.432 505.73 422.6C520.84 419.31 530.63 410.17 535.57 395.72C537.939 388.57 539.039 381.06 538.82 373.53C538.66 365.7 538.24 357.87 537.75 350.05C537.292 343.658 535.946 337.361 533.75 331.34C532.291 327.278 530.235 323.456 527.65 320C520.77 310.72 511.32 306.34 500.03 306C484.21 305.54 468.38 305.44 452.56 305.2C442.01 305.04 431.46 304.91 420.91 304.75C419.16 304.75 417.42 304.59 415.91 304.53C414.34 303.09 414.21 301.46 413.91 299.9C412.41 291.573 410.913 283.24 409.42 274.9C408.78 271.28 408.18 267.66 407.48 264.05C401.96 235.63 395.54 207.43 386.9 179.79C379.64 156.59 371.23 133.807 361.67 111.44C353.858 93.2176 344.755 75.5761 334.43 58.65C324.745 42.8085 313.281 28.1265 300.26 14.89C295.526 10.1535 290.386 5.84038 284.9 1.99998C283.67 1.00678 282.202 0.350812 280.642 0.0965797C279.082 -0.157652 277.482 -0.00139612 276 0.549985C262.43 4.79998 248.77 8.74998 235.15 12.83C159.537 35.45 83.9267 58.0733 8.32001 80.7C6.95001 81.11 5.53997 81.46 4.21997 82C0.839971 83.38 -0.220022 85 0.039978 88.65C0.399978 93.91 0.940027 99.16 1.34003 104.42C2.54669 120.047 3.73998 135.67 4.91998 151.29C5.62998 160.54 6.38003 169.78 7.09003 179.03C8.29003 194.65 9.48332 210.27 10.67 225.89C11.42 235.62 12.21 245.34 12.96 255.06C14.12 270.207 15.2733 285.353 16.42 300.5C17.17 310.22 17.95 319.94 18.69 329.67C19.8567 344.81 21.0166 359.953 22.17 375.1C22.95 385.3 23.78 395.5 24.56 405.7C25.6933 420.367 26.8133 435.033 27.92 449.7C28.6933 459.747 29.4733 469.79 30.26 479.83C31.0467 490.03 31.8333 500.23 32.62 510.43C33.8067 525.763 34.9967 541.067 36.19 556.34C37.28 570.53 38.32 584.72 39.41 598.91C40.21 609.43 41.06 619.91 41.88 630.46C42.62 640.027 43.3567 649.593 44.09 659.16L47.72 706C48.1466 711.58 48.5633 717.16 48.97 722.74C49.03 723.54 49.03 724.34 49.1 725.14C49.5 729.66 50.56 730.64 55.22 730.36C64.79 729.8 74.36 729.15 83.93 728.53C91.59 728.03 99.25 727.53 106.93 727.02C117.93 726.27 128.93 725.47 139.93 724.72C151.57 723.92 163.213 723.14 174.86 722.38L212.17 719.88C219.51 719.4 226.85 718.93 234.17 718.43L267.65 716.09C274.19 715.64 280.73 715.22 287.27 714.78C300.503 713.88 313.737 712.977 326.97 712.07C330.33 711.997 333.677 711.622 336.97 710.95C339.147 710.43 341.191 709.459 342.97 708.1C348.423 703.894 353.277 698.966 357.4 693.45C371.128 675.534 382.757 656.104 392.06 635.54C404.856 607.08 413.478 576.923 417.66 546C418.66 538.4 419.22 530.73 419.87 523.09C420.52 515.45 421.03 507.78 421.6 500.09C421.6 499.45 421.69 498.82 421.72 498.18C422.45 477.24 423.6 456.32 422.85 435.36C422.77 433.14 422.85 430.92 422.85 428.73C425.69 427.21 428.34 427.67 430.85 427.9C432.11 429.26 431.77 430.77 431.85 432.16C432.14 440.79 432.44 449.42 432.62 458.06C432.8 466.53 433.49 465.18 438.78 468.75C439.46 470.75 439.15 472.8 439.14 474.86C439.013 495.487 438.86 516.113 438.68 536.74C438.595 538.339 438.595 539.941 438.68 541.54C438.698 542.812 439.043 544.059 439.68 545.16C441.3 547.27 441.29 549.58 441.3 551.99C441.367 577.097 441.45 602.203 441.55 627.31C441.877 697.67 442.21 768.033 442.55 838.4C443.097 947.94 443.65 1057.48 444.21 1167.02C444.21 1168.14 444.21 1169.26 444.21 1170.38C444.335 1171.17 444.239 1171.98 443.931 1172.72C443.624 1173.45 443.118 1174.09 442.47 1174.56C441.899 1175 441.446 1175.58 441.153 1176.24C440.86 1176.91 440.735 1177.63 440.79 1178.35C440.79 1178.99 440.79 1179.63 440.79 1180.27C441.01 1194.98 441.227 1209.69 441.44 1224.4C441.44 1227.13 441.44 1229.83 443.77 1231.91C444.37 1232.43 444.47 1233.65 444.57 1234.57C444.71 1236 444.66 1237.44 444.66 1238.88C444.907 1299.17 445.147 1359.46 445.38 1419.75C445.44 1434.42 445.44 1449.12 445.38 1463.87C445.482 1467.6 445.301 1471.34 444.84 1475.05C443.51 1476.57 441.99 1476.3 440.6 1476.34C434.36 1476.5 428.13 1476.67 421.9 1476.71C415.33 1476.71 410.59 1479.53 407.77 1485.53C406.2 1488.87 404.77 1492.21 404.57 1495.99C404.4 1499.18 403.74 1502.35 403.69 1505.53C403.682 1510.34 401.958 1514.98 398.83 1518.63C353.71 1574.05 308.663 1629.54 263.69 1685.09C220.89 1737.87 178.063 1790.63 135.21 1843.36C130.28 1849.36 131.62 1855.75 135.87 1860.09C137.754 1862.07 140.077 1863.57 142.65 1864.48C144.367 1865.16 146.225 1865.4 148.058 1865.18C149.89 1864.96 151.64 1864.29 153.15 1863.23C155.615 1861.45 157.802 1859.32 159.64 1856.9C174.887 1837.78 190.153 1818.67 205.44 1799.56L375.34 1587.15C393.02 1565.04 410.687 1542.93 428.34 1520.83C432.46 1515.68 431.4 1516.25 437.92 1516.22C441.11 1516.2 444.25 1515.9 448.13 1516.57ZM55.42 723.74C55.19 722.12 54.85 720.41 54.72 718.68C53.66 704.98 52.62 691.273 51.6 677.56C50.86 667.67 50.16 657.79 49.4 647.9C48.18 632.133 46.9467 616.357 45.7 600.57C44.99 591.49 44.36 582.4 43.65 573.31C42.4434 557.69 41.22 542.073 39.98 526.46C39.25 517.05 38.59 507.64 37.87 498.24C36.6367 482.3 35.3967 466.363 34.15 450.43C33.46 441.5 32.82 432.57 32.15 423.65C30.93 408.03 29.7066 392.41 28.48 376.79C27.77 367.54 27.11 358.29 26.4 349.05C25.1467 332.79 23.89 316.533 22.63 300.28C21.9633 291.513 21.2967 282.747 20.63 273.98C19.3967 258.04 18.16 242.1 16.92 226.16C16.2533 217.24 15.5866 208.313 14.92 199.38C13.68 183.28 12.4367 167.183 11.19 151.09C10.46 141.68 9.69997 132.28 8.96997 122.88C8.17997 112.88 7.37001 102.8 6.64001 92.76C6.51001 91.05 6.12001 89.24 7.45001 87.35L275.76 7.14998C276.397 7.02264 277.042 6.94242 277.69 6.90998C278.463 8.70445 278.868 10.636 278.88 12.59C279.13 15.78 279.27 18.97 279.52 22.16C280.673 37.14 281.833 52.14 283 67.16C283.77 77.16 284.49 87.25 285.26 97.29C286.42 112.43 287.593 127.573 288.78 142.72C289.54 152.6 290.24 162.49 291 172.37C292.167 187.703 293.35 203.003 294.55 218.27C295.31 228.16 296.02 238.05 296.78 247.93C297.933 262.91 299.097 277.89 300.27 292.87C301.04 302.92 301.75 312.97 302.52 323.01C303.673 337.99 304.837 352.97 306.01 367.95C306.78 378 307.48 388 308.25 398C309.35 412.18 310.53 426.36 311.61 440.55C312.43 451.23 313.12 461.92 313.95 472.6C315.39 491.4 316.95 510.21 318.37 529.01C319.95 549.41 321.517 569.813 323.07 590.22L326.97 641.39C328.517 661.63 330.057 681.873 331.59 702.12C331.585 703.219 331.495 704.315 331.32 705.4C330.488 705.647 329.639 705.835 328.78 705.96C238.213 712.06 147.647 718.143 57.08 724.21C56.5063 724.137 55.9467 723.979 55.42 723.74V723.74ZM450.56 1173.22C450.48 1171.22 450.38 1169.67 450.36 1168.1C450.22 1154.83 450.03 1141.56 449.97 1128.29C449.59 1053.14 449.227 977.993 448.88 902.84C448.68 861.267 448.483 819.697 448.29 778.13C448.057 728.083 447.833 678.037 447.62 627.99C447.51 603.85 447.31 579.71 447.2 555.56C447.2 553.36 446.73 551.09 447.71 548.99C451.2 548.19 458.39 548.19 461.58 548.99C461.981 551.3 462.112 553.649 461.97 555.99C462.37 636.583 462.763 717.17 463.15 797.75C463.543 879.93 463.923 962.113 464.29 1044.3C464.45 1081.07 464.603 1117.84 464.75 1154.62C464.75 1159.62 464.87 1164.53 464.86 1169.49C464.779 1170.81 464.619 1172.11 464.38 1173.41C459.774 1173.66 455.157 1173.59 450.56 1173.22V1173.22ZM496.25 1515.88C500.45 1515.88 504.1 1515.88 507.76 1515.73C508.713 1515.63 509.675 1515.8 510.539 1516.21C511.402 1516.63 512.133 1517.27 512.65 1518.08C513.1 1518.74 513.65 1519.33 514.14 1519.95C562.673 1579.78 611.2 1639.6 659.72 1699.43C687.3 1733.43 714.883 1767.43 742.47 1801.43C743.66 1802.9 744.78 1804.43 745.89 1805.86C742.28 1810.09 737.95 1813.67 734.53 1815.19C655.377 1716.14 576.193 1617.04 496.98 1517.89C496.664 1517.25 496.419 1516.57 496.25 1515.88V1515.88ZM175.18 1804.26C176.32 1802.78 177.35 1801.37 178.45 1800.02C195.257 1779.29 212.07 1758.56 228.89 1737.84L404.96 1520.75C405.67 1519.88 406.38 1519.02 407.08 1518.14C407.406 1517.68 407.835 1517.31 408.331 1517.04C408.827 1516.78 409.378 1516.63 409.94 1516.62C413.77 1516.62 417.6 1516.52 421.44 1516.52C421.85 1516.52 422.26 1516.9 422.78 1517.15C422.46 1518.88 421.21 1519.96 420.25 1521.15C410.69 1533.15 401.113 1545.15 391.52 1557.15L219.09 1772.86C209.09 1785.35 199.09 1797.83 189.09 1810.3C188.09 1811.5 187.47 1813.1 185.38 1813.57C182.6 1811.19 179.69 1808.72 176.82 1806.21C176.234 1805.59 175.687 1804.94 175.18 1804.26V1804.26ZM466.11 1516.37C466.675 1518.33 466.868 1520.39 466.68 1522.42C466.68 1537.6 466.643 1552.78 466.57 1567.97C466.443 1655.24 466.31 1742.51 466.17 1829.78C466.17 1844.65 466.17 1859.51 466.11 1874.38C466.11 1876.09 466.5 1877.9 465.11 1879.86C460.78 1879.86 456.24 1880.19 451.44 1879.19C451.32 1877.62 451.11 1876.19 451.11 1874.81C451.11 1871.3 451.2 1867.81 451.23 1864.27C451.897 1792.82 452.543 1721.37 453.17 1649.94C453.563 1607.27 453.943 1564.61 454.31 1521.94C454.273 1520.98 454.297 1520.02 454.38 1519.06C454.573 1518.1 454.83 1517.15 455.15 1516.22C458.85 1516.12 462.32 1515.71 466.11 1516.37ZM464.73 1234.59C465.186 1236.59 465.341 1238.65 465.19 1240.7C465.497 1301.75 465.8 1362.81 466.1 1423.87C466.1 1426.58 466.03 1429.3 466.1 1432.02C466.32 1445.12 466.59 1458.22 466.81 1471.32C466.81 1472.74 467.04 1474.22 466.06 1475.47C461.37 1476.35 454.65 1476.3 451.27 1475.3C451.27 1474.13 451.21 1472.89 451.27 1471.65C451.36 1469.9 451.68 1468.15 451.67 1466.4C451.53 1431.56 451.37 1396.72 451.19 1361.87C451.03 1327.82 450.867 1293.78 450.7 1259.73C450.7 1252.54 450.61 1245.35 450.61 1238.16C450.61 1236.93 450.26 1235.56 451.48 1234.59H464.73Z" fill="#2D2D2D"/>
<path d="M55.42 723.74C55.9476 723.993 56.5107 724.165 57.09 724.25C147.657 718.19 238.223 712.107 328.79 706C329.649 705.875 330.498 705.687 331.33 705.44C331.505 704.355 331.595 703.259 331.6 702.16C330.087 681.92 328.547 661.677 326.98 641.43L323.08 590.26C321.52 569.86 319.953 549.457 318.38 529.05C316.92 510.25 315.38 491.44 313.96 472.64C313.13 461.96 312.44 451.27 311.62 440.59C310.54 426.4 309.36 412.22 308.26 398.04C307.48 387.99 306.78 377.95 306.01 367.9C304.837 352.92 303.673 337.953 302.52 323C301.75 313 301.04 302.91 300.27 292.86C299.123 277.88 297.96 262.9 296.78 247.92C296.02 238.04 295.31 228.15 294.55 218.26C293.377 202.927 292.193 187.627 291 172.36C290.24 162.48 289.54 152.59 288.78 142.71C287.62 127.563 286.447 112.42 285.26 97.28C284.49 87.28 283.77 77.19 283 67.15C281.853 52.1633 280.693 37.18 279.52 22.2C279.27 19.01 279.13 15.82 278.88 12.63C278.868 10.6761 278.463 8.74448 277.69 6.95001C277.042 6.98245 276.397 7.06266 275.76 7.19001L7.37997 87.39C6.04997 89.28 6.43998 91.09 6.56998 92.8C7.29998 102.8 8.10999 112.88 8.89999 122.92C9.62999 132.32 10.39 141.72 11.12 151.13C12.3666 167.23 13.6099 183.327 14.8499 199.42C15.5166 208.353 16.1833 217.28 16.8499 226.2C18.0833 242.14 19.32 258.08 20.56 274.02C21.2266 282.78 21.8933 291.547 22.56 300.32C23.8066 316.573 25.0633 332.83 26.33 349.09C27.04 358.33 27.6999 367.58 28.4099 376.83C29.6166 392.45 30.84 408.07 32.08 423.69C32.77 432.61 33.41 441.54 34.08 450.47C35.3133 466.403 36.5533 482.34 37.8 498.28C38.52 507.68 39.1799 517.09 39.9099 526.5C41.1233 542.12 42.3467 557.737 43.58 573.35C44.29 582.44 44.92 591.53 45.63 600.61C46.85 616.39 48.0833 632.167 49.33 647.94C50.09 657.83 50.79 667.71 51.53 677.6C52.5567 691.313 53.5967 705.02 54.65 718.72C54.85 720.41 55.19 722.12 55.42 723.74Z" fill="white"/>
<path d="M450.56 1173.22C455.156 1173.61 459.773 1173.69 464.38 1173.46C464.619 1172.16 464.779 1170.86 464.86 1169.54C464.86 1164.54 464.77 1159.63 464.75 1154.67C464.59 1117.89 464.437 1081.12 464.29 1044.35C463.917 962.163 463.537 879.98 463.15 797.8C462.77 717.213 462.377 636.627 461.97 556.04C462.112 553.699 461.981 551.35 461.58 549.04C458.39 548.2 451.2 548.2 447.71 549.04C446.71 551.14 447.19 553.41 447.2 555.61C447.31 579.76 447.51 603.9 447.62 628.04C447.86 678.087 448.083 728.133 448.29 778.18C448.483 819.753 448.68 861.323 448.88 902.89C449.24 978.043 449.603 1053.19 449.97 1128.34C450.03 1141.61 450.22 1154.88 450.36 1168.15C450.38 1169.67 450.48 1171.24 450.56 1173.22Z" fill="white"/>
<path d="M496.25 1515.88C496.42 1516.57 496.665 1517.24 496.98 1517.88C576.167 1617.01 655.35 1716.11 734.53 1815.18C737.95 1813.66 742.28 1810.08 745.89 1805.85C744.78 1804.41 743.66 1802.85 742.47 1801.42C714.89 1767.42 687.307 1733.42 659.72 1699.42C611.187 1639.61 562.66 1579.8 514.14 1520C513.64 1519.38 513.14 1518.79 512.65 1518.13C512.133 1517.32 511.402 1516.68 510.539 1516.26C509.675 1515.85 508.713 1515.68 507.76 1515.78C504.1 1515.88 500.45 1515.84 496.25 1515.88Z" fill="white"/>
<path d="M175.18 1804.26C175.703 1804.94 176.268 1805.58 176.87 1806.19C179.74 1808.7 182.65 1811.19 185.43 1813.55C187.52 1813.08 188.18 1811.48 189.14 1810.28C199.14 1797.82 209.14 1785.34 219.14 1772.84L391.52 1557.13C401.1 1545.13 410.677 1533.13 420.25 1521.13C421.25 1519.92 422.46 1518.84 422.78 1517.13C422.26 1516.88 421.85 1516.5 421.44 1516.5C417.6 1516.5 413.77 1516.5 409.94 1516.6C409.378 1516.61 408.827 1516.76 408.331 1517.02C407.835 1517.29 407.407 1517.66 407.08 1518.12C406.38 1519 405.67 1519.86 404.96 1520.73L228.89 1737.82C212.07 1758.54 195.257 1779.27 178.45 1800C177.35 1801.37 176.32 1802.78 175.18 1804.26Z" fill="white"/>
<path d="M466.11 1516.37C462.32 1515.71 458.85 1516.12 455.19 1516.2C454.87 1517.13 454.613 1518.08 454.42 1519.04C454.336 1520 454.313 1520.96 454.35 1521.92C453.97 1564.59 453.59 1607.25 453.21 1649.92C452.543 1721.36 451.897 1792.8 451.27 1864.25C451.27 1867.76 451.14 1871.25 451.15 1874.79C451.15 1876.2 451.36 1877.6 451.48 1879.17C456.28 1880.17 460.82 1879.86 465.15 1879.84C466.5 1877.84 466.15 1876.07 466.15 1874.36C466.2 1859.49 466.15 1844.63 466.21 1829.76C466.337 1742.49 466.47 1655.22 466.61 1567.95C466.61 1552.77 466.647 1537.59 466.72 1522.4C466.893 1520.37 466.686 1518.32 466.11 1516.37Z" fill="white"/>
<path d="M464.73 1234.59H451.46C450.24 1235.59 450.59 1236.93 450.59 1238.16C450.59 1245.35 450.64 1252.54 450.68 1259.73C450.84 1293.78 451.003 1327.82 451.17 1361.87C451.337 1396.71 451.497 1431.55 451.65 1466.4C451.65 1468.15 451.34 1469.9 451.25 1471.65C451.18 1472.89 451.25 1474.13 451.25 1475.3C454.63 1476.3 461.35 1476.3 466.05 1475.47C467.05 1474.22 466.81 1472.74 466.79 1471.32C466.57 1458.22 466.3 1445.12 466.08 1432.02C466.08 1429.3 466.13 1426.58 466.08 1423.87C465.787 1362.81 465.483 1301.75 465.17 1240.7C465.328 1238.65 465.18 1236.59 464.73 1234.59V1234.59Z" fill="white"/>
</g>
<defs>
<clipPath id="clip0">
<rect width="789.25" height="1947.44" fill="white" transform="matrix(-1 0 0 1 789.25 0)"/>
</clipPath>
</defs>
</svg>