<?xml version="1.0" standalone="no"?>
<!DOCTYPE svg PUBLIC "-//W3C//DTD SVG 20010904//EN"
 "http://www.w3.org/TR/2001/REC-SVG-20010904/DTD/svg10.dtd">
<svg version="1.0" xmlns="http://www.w3.org/2000/svg"
 width="215.000000pt" height="287.000000pt" viewBox="0 0 215.000000 287.000000"
 preserveAspectRatio="xMidYMid meet">
<metadata>
Created by potrace 1.16, written by Peter Selinger 2001-2019
</metadata>
<g transform="translate(0.000000,287.000000) scale(0.100000,-0.100000)"
fill="#000000" stroke="none">
<path d="M1001 2856 c-6 -8 -16 -40 -21 -72 -5 -31 -17 -79 -26 -106 -16 -50
-98 -183 -127 -207 -9 -7 -17 -18 -17 -23 0 -5 -62 -76 -138 -156 -172 -185
-209 -229 -276 -336 -102 -163 -148 -331 -148 -546 -1 -126 1 -142 31 -230 76
-225 213 -386 416 -486 87 -43 221 -84 274 -84 l26 0 -3 -103 c-3 -92 -1 -105
18 -130 24 -31 46 -34 78 -11 20 14 22 23 22 123 l0 109 31 6 c17 3 50 6 73 6
48 0 66 13 66 50 0 46 -14 50 -163 50 -170 0 -250 16 -376 77 -79 38 -108 59
-181 131 -96 97 -136 158 -175 277 -25 73 -27 90 -23 195 7 174 57 304 173
450 50 63 117 116 217 170 42 23 80 50 83 60 8 25 -9 57 -34 65 -20 6 -105
-32 -184 -82 -60 -38 -36 -6 115 152 73 77 156 167 183 200 28 33 53 62 56 65
3 3 18 25 33 49 61 96 109 279 87 327 -8 18 -18 24 -45 24 -18 0 -39 -6 -45
-14z"/>
<path d="M1026 2318 c-13 -19 -16 -63 -17 -268 0 -135 -3 -262 -7 -284 -6 -34
-12 -40 -51 -53 -140 -47 -230 -166 -239 -314 -13 -217 148 -383 367 -381 95
1 168 31 240 98 82 75 115 151 115 259 0 109 -34 184 -115 259 -52 49 -142 96
-182 96 -9 0 -11 67 -9 286 3 260 2 287 -14 305 -24 26 -69 25 -88 -3z m-26
-805 c0 -119 10 -143 61 -143 51 0 59 20 59 142 l0 111 33 -7 c17 -3 50 -19
72 -34 126 -88 141 -276 30 -387 -98 -98 -262 -99 -363 -2 -56 53 -76 102 -76
182 0 80 20 129 76 181 31 30 84 63 101 64 4 0 7 -48 7 -107z"/>
<path d="M1313 2094 c-23 -36 -12 -50 81 -103 91 -51 200 -149 252 -228 21
-31 51 -90 68 -131 37 -89 63 -106 101 -68 29 29 27 42 -30 161 -73 152 -198
282 -344 359 -82 43 -105 45 -128 10z"/>
<path d="M1600 755 c-7 -8 -54 -88 -105 -177 -51 -90 -136 -238 -189 -330 -53
-92 -96 -178 -96 -191 0 -50 79 -78 112 -39 17 20 253 437 264 467 5 11 32 61
61 112 29 51 53 103 53 116 0 47 -71 77 -100 42z"/>
</g>
</svg>
